<svg xmlns="http://www.w3.org/2000/svg" xmlns:xlink="http://www.w3.org/1999/xlink" width="800" height="989.811" xmlns:v="https://vecta.io/nano"><style><![CDATA[.B{stroke-linejoin:round}.C{fill:#fff}.D{fill:none}.E{stroke:#000}.F{stroke-width:1.5}.G{stroke-width:3}.H{stroke:#fff}.I{fill:#eb060b}.J{stroke:#d5952a}.K{stroke-linecap:round}.L{stroke-width:4.037}]]></style><g stroke-width="10" class="B"><path d="M11.946 15.822V548.69c-23.698 331.914 235.132 425.327 384.968 425.327 149.822 0 409.993-101.018 384.968-425.327V15.822H11.946z" fill="#ea080a" stroke="#ea0708"/><path d="M18.03 166.537v445.477c-2.758 205.252 174.686 355.574 378.883 355.574s381.64-150.322 378.883-355.574V166.537H18.03z" fill="#291866" stroke="#da8f35"/></g><path d="M64.357 654.8c32.782 20.594 44.477 38.813 48.57 73.57-26.812-13.493-46.42-34.468-48.57-73.57zm59.97 31.005c24.047 30.34 29.003 51.414 21.282 85.55-20.784-21.656-32.283-47.966-21.282-85.55zm35.66 46.92c28.5 26.2 36.712 46.226 34.443 81.152-23.925-18.126-39.4-42.306-34.443-81.152zm41.348 40.628c31.54 22.453 42.162 41.316 44.243 76.253-26-15.02-44.353-37.1-44.243-76.253zm45.348 35.688c35.464 15.527 49.72 31.82 58.904 65.592-28.5-9.386-51.002-27.235-58.904-65.592zm-31.736 60.505c36.578-12.682 58.107-10.404 87.78 8.154-27.304 12.47-55.934 14.638-87.78-8.154zM157.27 828.45c38.196-6.313 59.03-.426 85.137 22.883-29.02 7.672-57.604 4.967-85.137-22.883zm-47.918-48.7c38.712-.4 58.4 8.604 80.637 35.63-29.85 3.145-57.686-3.9-80.637-35.63zM67.845 724.9c38.322 5.498 56.4 17.393 74.274 47.5-29.982-1.435-56.42-12.634-74.274-47.5zM296.5 891.597c25.872 12.384 64.377-1.4 97.857-11.43-4.098-2.404-7.995-4.875-9.286-8.214-13.168 6.17-21.656 13.576-45.357 15.357-4.98-1.465-6.547-4.262-6.786-8.57 1.196-5.075-2.263-7.357-5.714-9.643-8.142-7.83-13.18-9.454-18.57-11.786 4.048 6.664 8.287 12.564 11.43 22.857-7.542 5.386-15.1 10.698-23.57 11.43zM730.357 654.8c-32.782 20.594-44.477 38.813-48.57 73.57 26.812-13.493 46.42-34.468 48.57-73.57zm-59.97 31.005c-24.047 30.34-29.003 51.414-21.282 85.55 20.784-21.656 32.283-47.966 21.282-85.55zm-35.66 46.92c-28.5 26.2-36.712 46.226-34.443 81.152 23.925-18.126 39.4-42.306 34.443-81.152zm-41.348 40.628c-31.54 22.453-42.162 41.316-44.243 76.253 26-15.02 44.353-37.1 44.243-76.253zM548.03 809.05c-35.464 15.527-49.72 31.82-58.904 65.592 28.5-9.386 51.002-27.235 58.904-65.592zm31.736 60.505c-36.578-12.682-58.107-10.404-87.78 8.154 27.304 12.47 55.934 14.638 87.78-8.154zm57.677-41.105c-38.196-6.313-59.03-.426-85.137 22.883 29.02 7.672 57.604 4.967 85.137-22.883zm47.918-48.7c-38.712-.4-58.4 8.604-80.637 35.63 29.85 3.145 57.686-3.9 80.637-35.63zm41.507-54.855c-38.322 5.498-56.4 17.393-74.274 47.5 29.982-1.435 56.42-12.634 74.274-47.5zm-228.655 166.69c-25.872 12.384-64.377-1.4-97.857-11.43 4.098-2.404 7.995-4.875 9.286-8.214C422.8 878.124 431.3 885.53 455 887.3c4.98-1.465 6.547-4.262 6.786-8.57-1.196-5.075 2.263-7.357 5.714-9.643 8.142-7.83 13.18-9.454 18.57-11.786-4.048 6.664-8.287 12.564-11.43 22.857 7.542 5.386 15.1 10.698 23.57 11.43z" fill="#79bc2c"/><path d="M697.005 505.948c0 164.578-133.417 297.995-297.995 297.995S101.015 670.526 101.015 505.948 234.432 207.953 399 207.953 697.005 341.37 697.005 505.948z"/><g class="B H"><g class="D K"><path d="M274.944 686.083c144.76-69.746 278.182-94.768 297.82-55.852 10.328 20.467-12.865 54.563-58.235 92.438" stroke-width="4"/><path d="M160.586 599.685c-12.587-59.4-9.976-102.045 10.723-112.5" class="L"/></g><path d="M120.835 615.977c41.962-54.03 107.543-88.816 181.2-88.816 126.576 0 229.305 102.728 229.305 229.305a232.3 232.3 0 0 1-.559 16.125l1.57 1.047c-208.772 87.04-368.99-47.424-411.515-157.662z" fill="#add6da"/></g><g fill="#79bc2c"><path d="M294.285 774.8l13.214-8.214c4.76-12.028 7.937-27.22 17.143-30.357l16.786-1.43 20.714 18.57c6.25 5.64 8.1 12.383 10.714 18.93.28-7.603 2.85-12.15-2.143-26.786-2.5 1.603-5-2.883-7.5-5.714h5v-6.07l-7.857-3.57c-2.143.6-4.286.664-6.43-2.5l6.43-1.786c-1.254-5.22 1.08-9.243 2.5-13.57 5.095-7.886 4.894-13.42 1.43-17.5-3.214 2.408-6.43 2.83-9.643 1.43 1.03-8.385 2.432-17.018.714-23.57-2.04-4.048-9.295-8.095-18.93-12.143l-19.643-.714-27.143-8.57-1.43-4.286 6.43-12.857c-.932-2.024-.33-4.048-5.714-6.07-5.833 1.1-11.667-.887-17.5-3.57-5.33 1.136-10.605 2.162-15 1.43-8.07 5.476-13.588 5.215-17.857 2.143l-2.857 6.07-.714 5.357-11.07 5c-.284 5.67-3.812 8.093-7.857 10 1.12 6.286-1.836 11.214-9.286 14.643l.357 7.143-3.93 4.643c2.474 3.955 7.57 7.648 1.07 12.5l-1.786 8.57 6.786.357 6.43 6.07-4.643 12.143 3.214 14.286c22.4 20.226 45.455 39.393 80 40zm212.56-118.602l-4.04 6.566c-7.454-5.674-13.467-9.426-14.9-7.07-3.722-3.012-6.784-6.685-7.83-12.374l-7.576-11.364c-.1-3.153-.662-6.012-2.778-7.83.873-6.585-2.725-10.42-10.607-11.617-5.206-1.835-12.06-2.728-12.88-7.07-10.997 3.213-10.806.133-11.364-2.525 6.454-2.36 4.002-5.3.505-8.334-6.942 1.46-10.473-2.537-14.142-6.313l-5.05-3.283c-4.53-.472-6.742-4.03-9.344-7.07-.37-5.286-1.987-9.95-5.05-13.9l9.596-9.1c13.323 6.955 26.24 15.945 38.9 26.264l2.02 10.102c1.058 3.32 4.165 4.6 8.586 4.546 7.2 10.376 15.647 21.114 27.527 32.83 9.912 7.92 12.317 18.342 18.435 27.527zm-308.987-104.61c6.36-2.92 29.222-9.37 35-9.464 8.54-1.233 4.577 3.037 3.93 5.536-4.002 2.282-3.545 5.122-3.93 7.857l-5 5c-1.287 2.093-3.726 2.65-6.43 2.857-2.738.12-5 1.2-6.786 3.214-3.127 3.288-7.618 2.94-12.143 2.5-5.216-1.026-7.985 2.84-11.43 5.357-6.48 1.56-12.785 3.477-17.857 7.857-5.105 5.32-12.438 7.296-15 16.43-.605 2.738-8.978 9.762-10.714 14.643-.5 1.997-1.78 3.835-4.643 5.357-2.227 2.147-5.036 2.254-8.214 1.07l-5.357-12.68 25-26.25c12.214-12.644 31.9-23.254 43.57-29.286zM221.07 567.5c3.78.043 5.67-2.338 7.857-2.857 2.174-.7 2.973-.262 2.143 1.607-2.782 6.105-4.442 2.944-10 1.25zm84.374-27.333c5.85 2.882 11.065 5.236 14.9 6.44l-9.723 5.808c-.997-1.56-.783-3.468-3.914-4.42 4.773-1.255 1.462-4.618-1.263-7.83zm.632 11.113c-6.827-1.538-13.817 5.12-20.456 9.975 3.24-.168 6.2-.405 10.733-.253 1.927-4.555 6.277-6.686 9.723-9.723zm138.2 234.602L440 781.06c4.312-3.608 2.14-5.595-1.07-7.32h-4.107c-.086-2.923-1.656-2.88-2.857-3.57.707 1.213 1.878 2.27 1.25 3.93-2.736-1.528-4.974-5.923-8.57-2.5-3.205-4.883-6.557-5.942-10-4.643 3.113 1.962 4.5 4.708 5 7.857l-3.57-.357c1.867 2.22 4.756 3.93 5.357 6.786 5.705 6.548 5.717 13.095 8.57 19.643l14.286-15zm-27.5-8.75c-1.323-2.3-3.453-4.14-2.32-7.768-3.02 2.268-5.282 5.678-6.875 10.1 2.98-1.206 5.983-2.288 9.196-2.32z"/><path d="M410.625 769.632l-3.214 3.214 3.214.09v-3.304z"/></g><path d="M171.31 487.195c38.916-19.637 127.105 81.912 196.852 226.67 14.668 30.444 27.358 60.387 37.892 88.876" class="B D H K L"/><path d="M398.15 222.716l13.205.493a13.77 13.77 0 0 0 14.267-13.24 13.77 13.77 0 0 0-13.24-14.267l-13.205-.493a13.77 13.77 0 0 0-14.267 13.24 13.77 13.77 0 0 0 13.24 14.267zm107.872 22.678l12 5.5a13.77 13.77 0 0 0 18.248-6.773 13.77 13.77 0 0 0-6.773-18.248l-12-5.5a13.77 13.77 0 0 0-18.248 6.773 13.77 13.77 0 0 0 6.773 18.248zm93.588 62.263l9 9.686a13.77 13.77 0 0 0 19.451.726 13.77 13.77 0 0 0 .726-19.451l-9-9.686a13.77 13.77 0 0 0-19.451-.726 13.77 13.77 0 0 0-.726 19.451zm59.382 91.575l4.598 12.4a13.77 13.77 0 0 0 17.692 8.114 13.77 13.77 0 0 0 8.114-17.692l-4.598-12.4a13.77 13.77 0 0 0-17.692-8.114 13.77 13.77 0 0 0-8.114 17.692zm21.338 107.504l-.493 13.205a13.77 13.77 0 0 0 13.24 14.267 13.77 13.77 0 0 0 14.267-13.24l.493-13.205a13.77 13.77 0 0 0-13.24-14.267 13.77 13.77 0 0 0-14.267 13.24zM660.5 614.252l-5.5 12a13.77 13.77 0 0 0 6.773 18.248 13.77 13.77 0 0 0 18.248-6.773l5.5-12a13.77 13.77 0 0 0-6.773-18.248 13.77 13.77 0 0 0-18.248 6.773zm-61.907 93.588l-9.686 9a13.77 13.77 0 0 0-.726 19.451 13.77 13.77 0 0 0 19.451.726l9.686-9a13.77 13.77 0 0 0 .726-19.451 13.77 13.77 0 0 0-19.451-.726zm-91.218 59.738l-12.4 4.598a13.77 13.77 0 0 0-8.114 17.692 13.77 13.77 0 0 0 17.692 8.114l12.4-4.598a13.77 13.77 0 0 0 8.114-17.692 13.77 13.77 0 0 0-17.692-8.114zm-107.145 22.4l-13.205-.493a13.77 13.77 0 0 0-14.267 13.24 13.77 13.77 0 0 0 13.24 14.267l13.205.493a13.77 13.77 0 0 0 14.267-13.24 13.77 13.77 0 0 0-13.24-14.267zM291.294 769.8l-12-5.5a13.77 13.77 0 0 0-18.248 6.773 13.77 13.77 0 0 0 6.773 18.248l12 5.5a13.77 13.77 0 0 0 18.248-6.773 13.77 13.77 0 0 0-6.773-18.248zm-95.017-62.253l-9-9.686a13.77 13.77 0 0 0-19.451-.726 13.77 13.77 0 0 0-.726 19.451l9 9.686a13.77 13.77 0 0 0 19.451.726 13.77 13.77 0 0 0 .726-19.451zm-61.88-90.86l-4.598-12.4a13.77 13.77 0 0 0-17.692-8.114 13.77 13.77 0 0 0-8.114 17.692l4.598 12.4a13.77 13.77 0 0 0 17.692 8.114 13.77 13.77 0 0 0 8.114-17.692zm-19.91-112.504l.493-13.205a13.77 13.77 0 0 0-13.24-14.267 13.77 13.77 0 0 0-14.267 13.24l-.493 13.205a13.77 13.77 0 0 0 13.24 14.267 13.77 13.77 0 0 0 14.267-13.24zM137 394.662l5.5-12a13.77 13.77 0 0 0-6.773-18.248 13.77 13.77 0 0 0-18.248 6.773l-5.5 12a13.77 13.77 0 0 0 6.773 18.248A13.77 13.77 0 0 0 137 394.662zm62.443-89.59l9.686-9a13.77 13.77 0 0 0 .726-19.451 13.77 13.77 0 0 0-19.451-.726l-9.686 9a13.77 13.77 0 0 0-.726 19.451 13.77 13.77 0 0 0 19.451.726zm91.555-61l12.4-4.598a13.77 13.77 0 0 0 8.114-17.692 13.77 13.77 0 0 0-17.692-8.114l-12.4 4.598a13.77 13.77 0 0 0-8.114 17.692 13.77 13.77 0 0 0 17.692 8.114zM453.47 228.3l12.855 3.06a13.77 13.77 0 0 0 16.576-10.203 13.77 13.77 0 0 0-10.203-16.576l-12.855-3.06a13.77 13.77 0 0 0-16.576 10.203 13.77 13.77 0 0 0 10.203 16.576zm101.376 43.287l10.706 7.746a13.77 13.77 0 0 0 19.219-3.083 13.77 13.77 0 0 0-3.083-19.219l-10.706-7.746a13.77 13.77 0 0 0-19.219 3.083 13.77 13.77 0 0 0 3.083 19.219zm79.644 79.326l6.927 11.253a13.77 13.77 0 0 0 18.935 4.507 13.77 13.77 0 0 0 4.507-18.935l-6.927-11.253a13.77 13.77 0 0 0-18.935-4.507 13.77 13.77 0 0 0-4.507 18.935zm40.373 101.4l2.093 13.048a13.77 13.77 0 0 0 15.769 11.41 13.77 13.77 0 0 0 11.41-15.769l-2.093-13.048a13.77 13.77 0 0 0-15.769-11.41 13.77 13.77 0 0 0-11.41 15.769zm-.045 109.6l-3.06 12.855a13.77 13.77 0 0 0 10.203 16.576 13.77 13.77 0 0 0 16.576-10.203l3.06-12.855a13.77 13.77 0 0 0-10.203-16.576 13.77 13.77 0 0 0-16.576 10.203zm-40.414 101.583l-7.746 10.706a13.77 13.77 0 0 0 3.083 19.219 13.77 13.77 0 0 0 19.219-3.083l7.746-10.706a13.77 13.77 0 0 0-3.083-19.219 13.77 13.77 0 0 0-19.219 3.083zM555.43 743.22l-11.254 6.927a13.77 13.77 0 0 0-4.507 18.935 13.77 13.77 0 0 0 18.935 4.507l11.254-6.927a13.77 13.77 0 0 0 4.507-18.935 13.77 13.77 0 0 0-18.935-4.507zM454.3 784.014l-13.048 2.093a13.77 13.77 0 0 0-11.41 15.769 13.77 13.77 0 0 0 15.769 11.41l13.048-2.093a13.77 13.77 0 0 0 11.41-15.769 13.77 13.77 0 0 0-15.769-11.41zM344.85 785.1l-12.855-3.06a13.77 13.77 0 0 0-16.576 10.203 13.77 13.77 0 0 0 10.203 16.576l12.855 3.06a13.77 13.77 0 0 0 16.576-10.203A13.77 13.77 0 0 0 344.85 785.1zm-102.915-41.054L231.23 736.3a13.77 13.77 0 0 0-19.219 3.083 13.77 13.77 0 0 0 3.083 19.219l10.706 7.746a13.77 13.77 0 0 0 19.219-3.083 13.77 13.77 0 0 0-3.083-19.219zM160.9 664.442l-6.927-11.253a13.77 13.77 0 0 0-18.935-4.507 13.77 13.77 0 0 0-4.507 18.935l6.927 11.254a13.77 13.77 0 0 0 18.935 4.507 13.77 13.77 0 0 0 4.507-18.935zm-42.975-101.187l-2.093-13.048a13.77 13.77 0 0 0-15.769-11.41 13.77 13.77 0 0 0-11.41 15.769l2.093 13.048a13.77 13.77 0 0 0 15.769 11.41 13.77 13.77 0 0 0 11.41-15.769zm2.422-114.225l3.06-12.855a13.77 13.77 0 0 0-10.203-16.576A13.77 13.77 0 0 0 96.628 429.8l-3.06 12.855a13.77 13.77 0 0 0 10.203 16.576 13.77 13.77 0 0 0 16.576-10.203zm43.446-103.025l7.746-10.706a13.77 13.77 0 0 0-3.083-19.219 13.77 13.77 0 0 0-19.219 3.083l-7.746 10.706a13.77 13.77 0 0 0 3.083 19.219 13.77 13.77 0 0 0 19.219-3.083zm78.722-75.685l11.253-6.927a13.77 13.77 0 0 0 4.507-18.935 13.77 13.77 0 0 0-18.935-4.507l-11.254 6.927a13.77 13.77 0 0 0-4.507 18.935 13.77 13.77 0 0 0 18.935 4.507zM344.2 228.353l13.048-2.093a13.77 13.77 0 0 0 11.41-15.769 13.77 13.77 0 0 0-15.769-11.41l-13.048 2.093a13.77 13.77 0 0 0-11.41 15.769 13.77 13.77 0 0 0 15.769 11.41z" fill="#d69025" stroke-width="2" class="B E"/><path d="M199.62 726.205c23.305-13.72 48.577-27.236 75.324-40.123 144.76-69.746 278.182-94.768 297.82-55.852" stroke-width="4" class="B D H K"/><g transform="matrix(.995185 -.098017 .098017 .995185 -51.38427 44.855107)"><use xlink:href="#B" /><use xlink:href="#C" /><use xlink:href="#D" /><use xlink:href="#E" /><use xlink:href="#F" /><use xlink:href="#G" /><use xlink:href="#H" /><path d="M575.63 751.64a5 5 0 0 0 1.158-.716l24.195-19.493a5 5 0 0 0-1.268-8.655 5 5 0 0 0-5.002.868l-24.195 19.493a5 5 0 0 0 5.112 8.504h0z"/><use xlink:href="#I" /><use xlink:href="#J" /><use xlink:href="#K" /><path d="M152.693 675.086a5 5 0 0 0 .716 1.158l19.493 24.195a5 5 0 0 0 8.655-1.268 5 5 0 0 0-.868-5.002l-19.493-24.195a5 5 0 0 0-8.504 5.112h0z"/><use xlink:href="#L" /><use xlink:href="#M" /><path d="M147.78 336.843a5 5 0 0 0-.796 1.105L132.1 365.216a5 5 0 0 0 4.484 7.511 5 5 0 0 0 4.289-2.716l14.893-27.268a5 5 0 0 0-7.977-5.9h0z"/><use xlink:href="#N" /><use xlink:href="#O" /><use xlink:href="#P" /><use xlink:href="#Q" /><use xlink:href="#R" /><use xlink:href="#S" /><use xlink:href="#T" /><path d="M619.592 714.083a5 5 0 0 0 .996-.928l19.927-23.838a5 5 0 1 0-7.668-6.415L612.92 706.74a5 5 0 0 0 6.673 7.343h0zm-95.874 66.66a5 5 0 0 0 1.275-.477l27.533-14.398a5 5 0 1 0-4.63-8.861l-27.533 14.398a5 5 0 0 0 3.355 9.337h0zm-113.488 23.33a5 5 0 0 0 1.361.048l30.947-2.766a5 5 0 1 0-.887-9.958l-30.947 2.766a5 5 0 0 0-.474 9.91h0z"/><use xlink:href="#U" /><path d="M192.486 721.992a5 5 0 0 0 .928.996l23.838 19.927a5 5 0 0 0 8.242-2.932 5 5 0 0 0-1.827-4.736L199.83 715.32a5 5 0 0 0-7.343 6.673h0z"/><use xlink:href="#V" /><use xlink:href="#W" /><use xlink:href="#X" /><use xlink:href="#Y" /><use xlink:href="#Z" /></g><path d="M479.285 813.56l-11.964 12.68c-1.052 6.865-1.7 17.366-8.214 18.57-13.232 2.447-21.69 6.644-21.25 25l8.75-.357c1.08-9.61 6.156-18.614 14.107-24.107 10.838-7.487 17.87-9.61 18.57-31.786zm6.786 119.464c-5.06-3.612-10.12-6.37-15.18-6.964-5.682-16.927-14.45-15.156-25.23-13.802-6.747.847-12.11-1.946-16.198-11.555l7.68-6.607s4.566 15.923 20.18 16.68c15.022.73 25.307 8.963 28.75 22.247z" class="B F I J"/><path d="M510.357 380.882l-11.07 12.143-33.214 25.714-1.07 5.357.357 4.643-35.48-3.613-.2 10.47c.047 1.292-11.18 2.265-11.853 1.017-.462-.857-.188-4.276-.188-4.276l-2.72 3.763-.62 7.996c-1.024 2.95-2.668 4.664-4.643 5.714l-.357 6.07c4.534-2.146 8.398 3.743 12.5 6.786H425c.302-1.984 1.64-1.38 2.857-1.07 4.15-1.92 6.658.68 8.93 3.93l-13.57 12.5c-1.162-3.252-3.496-3.376-6.07-2.857-3.474 2.943-7.5 2.014-11.43 1.786-.728-2.167-2.26-2.328-3.93-2.143-.386-1.727-1.93-1.14-3.214-1.07-3.015-4.495.63-6.567 2.5-9.286l-3.57 1.43-31.07-13.93c-1.83.962-3.767 1.4-6.07 0l-4.643 3.93c-1.18 1.6-6.443-.8-5.714-4.286l4.643-4.286-18.214-6.786c-5.595-4.345 2.68-21.25 9.286-18.57l9.286 3.93-1.07-28.57 20 4.643v21.43l20.714-17.143.357-11.786c-4.448-2.52-2.626-3.897.714-5 2.723-2.3 5.612-1.743 8.57 0 .486-.736 1.236.117 1.95.75l2.692 1.036c2.557-.932 4.677-2.183 4.643-5-4.664-.6-5.54-6.098 1.16-6.25 4.142-.17 6.333 4.395.625 5.893.8 4.672-.965 6.36-3.214 7.5l-.714 6.43 6.786-5.357c.242-4.16 2.57-4.145 4.643-4.643l.357-5.357 21.43-17.143c2.024-2.07 4.048-1.363 6.07.357l1.786-.714 1.07-3.93-38.214-15 18.373-13.8 32.4 13.3 11.308-11.1 6.837-2.677-1.28-2.6-30.1-14.13 11.103-9.934 30.94 15.038 3.38 1.5 3.172-2.408 5.663-6.078 13.947-8.748c14.74-1.853 13.57 15.826 10.97 16.16l-12.103 9.147 31.525 13.12-10.964 9.232-33.86-15-7.376 5.762-2.5-1.07c1.592 6.226-4.96 8.963-9.643 12.5l3.93 1.786 10.714-7.857.714 12.5 5.714 1.786 15 6.43zm-70.18 11.25l10.536-8.214.893-2.5c3.008 10.08-4.2 10.396-11.43 10.714zm24.107-11.786c3.154-3.036 6.117-6.264 10.18-8.393l-4.82-2.143 3.214-3.75-2.5-1.07-3.393 3.93-3.393-.893-2.5 3.93c3.625 2.16 3.28 5.3 3.214 8.393zm95.593 89.994l96.848-74.878L619.35 379.3l-94.576 73.867 35.103 17.173z" class="C"/><path d="M538.41 461.754l101.52-77.277" class="B D E G"/><use xlink:href="#a" class="C"/><path d="M496.625 443.63l101.52-77.277" class="B D E G"/><use xlink:href="#a" x="-71.35" y="100.2" class="C"/><path d="M425.274 543.83l101.52-77.277" class="B D E G"/><use xlink:href="#a" x="-113.136" y="82.085" class="C"/><path d="M383.488 525.704l101.52-77.277" class="B D E G"/><g class="C"><path d="M713.392 189.862l7.18 24.044 25.086-.603-20.65 14.257 8.325 23.672L713.392 236l-19.94 15.233 8.325-23.672-20.65-14.257 25.086.603 7.18-24.044zm-632 0l7.18 24.044 25.086-.603-20.65 14.257 8.325 23.672L81.392 236l-19.94 15.233 8.325-23.672-20.65-14.257 25.086.603 7.18-24.044zM308.93 376.24v45.714l-10-4.286v-47.143l10 5.714zm-43.573 33.928l-11.786-5.357-2.857-52.143 13.214.357 1.43 57.143z"/><path d="M530.714 455.525c3.922 6.246 6.832 18.464-10.714 13.57L255.714 354.454c-44.15-13.846 1.42-14.4 8.93-11.786l266.07 112.857z"/><path d="M236.123 332.707l35.86 15.9 97.985-75.004-37.88-16.162-95.964 75.256zm43.94 17.425l31.82 14.142 98.742-74.246-34.598-12.374-95.964 72.478zM126.52 415.034l32.577 15.152 96.975-74.75-32.325-14.395-97.227 73.994zm40.155 17.93l36.113 15.9 100.5-76.014-35.86-16.668-100.763 76.772z"/></g><path d="M144.286 421.597l93.57-71.786m-52.5 89.643l96.07-74.286m-27.857-26.07l96.43-73.57m41.07 17.498l-95 72.857" class="B D E G"/><path d="M528.815 485.24l1.515 30.8-12.122-6.06-1-19.698 11.617-5.05zm-43.437-16.668v16.162l-11.112 4.546v-16.162l11.112-4.546zm45.336.346c5.478 1.123 12.714-4.046 18.393-6.43l-7.143-4.286c-3.422 2.142-7.02 5.332-10 4.82l-1.25 5.893zM342.2 364.274l.253 36.87 10.102 4.04 5.556-2.02 1-3.536 13.132-11.617c3.3-4.406 7.042-7.294 10.354-8.334 4.176-1.182 5.663-3.948 7.83-5.808 2.588-2.8 5.05-5.725 9.596-6.566 4.617-1.306 6.598-4.215 8.586-6.82 2.912-3.47 6.265-5.616 9.85-7.07l-1.768-39.396c-3.36 2.364-6.602 4.846-10.607 6.566-3.037 1.436-6.906 4.043-10.607 8.84-2.84 4.507-6.954 6.464-11.112 8.334-4.4 1.44-7.236 5.224-10.354 8.586-2.387 2.974-6.155 5.256-9.85 7.576-3.03 1.456-6.06 4.362-9.1 7.83l-4.04 3.536c-3.193-1.57-6.3-2.76-8.84-1zm131.024 466.43c-1.066-6.34 1.2-7.112 2.857-8.93.038 1.986-1 5.038-2.857 8.93z" class="C"/><path d="M418.57 889.99c6.823 9.605 9.248 6.342 13.214-8.75 1.33-6.954 3.49-12.854 10-13.214 9.734-.915 12.883 7.635 13.036 10 .225 3.525.558 7.144-2.143 8.036-6 .028-7.776-.645-7.32-5 .577-5.497 4.955-4.018 6.964-.536 1.077-5.97-5.47-12.242-7.32-7.68-2.225 9.416-8.17 26.235-11.786 27.68-8.235 4.377-15.258-1.968-14.643-10.536z" class="B F I J"/><path d="M437.522 883.113c2.9-2.918 4.834-6 4.04-9.596-.392 1.528-2.37 5.832-4.04 9.596zm42.658 44.02c-3.16-1.542-4.516-4.888-6.07-8.036 3.026 2.26 5.406 4.873 6.07 8.036z" class="C"/><path d="M315.428 813.56l11.964 12.68c1.052 6.865 1.7 17.366 8.214 18.57 13.232 2.447 21.69 6.644 21.25 25l-8.75-.357c-1.08-9.61-6.156-18.614-14.107-24.107-10.838-7.487-17.87-9.61-18.57-31.786zm-6.786 119.464c5.06-3.612 10.12-6.37 15.18-6.964 5.682-16.927 14.45-15.156 25.23-13.802 6.747.847 12.11-1.946 16.198-11.555l-7.68-6.607s-4.566 15.923-20.18 16.68c-15.022.73-25.307 8.963-28.75 22.247z" class="B F I J"/><path d="M321.5 830.704c1.066-6.34-1.21-7.112-2.857-8.93-.038 1.986.99 5.038 2.857 8.93z" class="C"/><path d="M376.142 890c-6.823 9.605-9.248 6.342-13.214-8.75-1.33-6.954-3.49-12.854-10-13.214-9.734-.915-12.883 7.635-13.036 10-.225 3.525-.558 7.144 2.143 8.036 6 .028 7.776-.645 7.32-5-.577-5.497-4.955-4.018-6.964-.536-1.077-5.97 5.47-12.242 7.32-7.68 2.225 9.416 8.17 26.235 11.786 27.68 8.235 4.377 15.258-1.968 14.643-10.536z" class="B F I J"/><path d="M357.2 883.114c-2.9-2.918-4.834-6-4.04-9.596.392 1.528 2.37 5.832 4.04 9.596zm-42.655 44.018c3.16-1.542 4.516-4.888 6.07-8.036-3.026 2.26-5.406 4.873-6.07 8.036z" class="C"/><g fill="#c7c7c6" class="B E F"><use xlink:href="#B" x="-3.994" y="3.135"/><use xlink:href="#C" x="-3.992" y="3.136"/><use xlink:href="#D" x="-3.992" y="3.137"/><use xlink:href="#E" x="-3.993" y="3.136"/><use xlink:href="#F" x="-3.993" y="3.136"/><use xlink:href="#G" x="-3.994" y="3.136"/><use xlink:href="#H" x="-3.993" y="3.136"/><path d="M571.638 754.776a5 5 0 0 0 1.158-.716L597 734.567a5 5 0 0 0-1.268-8.655 5 5 0 0 0-5.002.868l-24.195 19.493a5 5 0 0 0 5.112 8.504h0z"/><use xlink:href="#I" x="-3.993" y="3.136"/><use xlink:href="#J" x="-3.993" y="3.136"/><use xlink:href="#K" x="-3.992" y="3.136"/><path d="M148.7 678.222a5 5 0 0 0 .716 1.158l19.493 24.195a5 5 0 0 0 8.655-1.268 5 5 0 0 0-.868-5.002L157.204 673.1a5 5 0 0 0-8.504 5.112h0z"/><use xlink:href="#L" x="-3.993" y="3.136"/><use xlink:href="#M" x="-3.994" y="3.136"/><path d="M143.786 339.98a5 5 0 0 0-.796 1.105l-14.893 27.268a5 5 0 0 0 4.484 7.511 5 5 0 0 0 4.289-2.716l14.893-27.268a5 5 0 0 0-7.977-5.9h0z"/><use xlink:href="#N" x="-3.994" y="3.136"/><use xlink:href="#O" x="-3.992" y="3.136"/><use xlink:href="#P" x="-3.992" y="3.135"/><use xlink:href="#Q" x="-3.994" y="3.137"/><use xlink:href="#R" x="-3.992" y="3.136"/><use xlink:href="#S" x="-3.993" y="3.136"/><use xlink:href="#T" x="-3.994" y="3.136"/><path d="M615.6 717.22a5 5 0 0 0 .996-.928l19.927-23.838a5 5 0 1 0-7.668-6.415l-19.927 23.838a5 5 0 0 0 6.673 7.343h0zm-95.875 66.66a5 5 0 0 0 1.275-.477l27.533-14.398a5 5 0 1 0-4.63-8.861L516.37 774.54a5 5 0 0 0 3.355 9.337h0zM406.237 807.2a5 5 0 0 0 1.361.048l30.947-2.766a5 5 0 1 0-.887-9.958L406.7 797.3a5 5 0 0 0-.474 9.91h0z"/><use xlink:href="#U" x="-3.993" y="3.135"/><path d="M188.493 725.128a5 5 0 0 0 .928.996l23.838 19.927a5 5 0 0 0 8.242-2.932 5 5 0 0 0-1.827-4.736l-23.838-19.927a5 5 0 0 0-7.343 6.673h0z"/><use xlink:href="#V" x="-3.992" y="3.136"/><use xlink:href="#W" x="-3.993" y="3.135"/><use xlink:href="#X" x="-3.992" y="3.137"/><use xlink:href="#Y" x="-3.983" y="3.136"/><use xlink:href="#Z" x="-3.994" y="3.136"/></g><path d="M592.156 573.563c-1.106 11.08-1.723 22.17-1.906 33.25-2.938.66-5.278 2.835-6.22 5.656-6.227.456-12.46 1.36-18.687 2.688 6.227 1.328 12.46 2.262 18.688 2.72.944 2.832 3.297 5.004 6.25 5.656.237 11.08.9 22.17 1.875 33.25a495.28 495.28 0 0 0 1.844-33.25 8.59 8.59 0 0 0 6.25-5.562 110.09 110.09 0 0 0 18.688-2.812c-6.227-1.492-12.46-2.384-18.687-2.78a8.6 8.6 0 0 0-6.219-5.562c-.183-11.08-.77-22.17-1.875-33.25zM254.47 458.313c-.705 7.065-1.07 14.122-1.187 21.188-1.878.42-3.402 1.8-4 3.594-3.964.3-7.9.873-11.875 1.72 3.964.846 7.9 1.428 11.875 1.72.598 1.804 2.122 3.174 4 3.594.15 7.065.56 14.122 1.188 21.188.628-7.065 1.037-14.122 1.188-21.187a5.46 5.46 0 0 0 3.969-3.531 70.1 70.1 0 0 0 11.906-1.781 70.1 70.1 0 0 0-11.906-1.781 5.46 5.46 0 0 0-3.969-3.531c-.117-7.065-.482-14.122-1.187-21.187zM597.313 310.03c-.742 7.428-1.127 14.854-1.25 22.28-1.98.44-3.6 1.88-4.22 3.78-4.16.307-8.308.925-12.47 1.813a92.06 92.06 0 0 0 12.47 1.78 5.79 5.79 0 0 0 4.22 3.813c.16 7.428.6 14.853 1.25 22.28.66-7.428 1.1-14.853 1.25-22.28 1.947-.433 3.507-1.863 4.156-3.72 4.175-.266 8.356-.874 12.53-1.875-4.175-1-8.356-1.6-12.53-1.875a5.7 5.7 0 0 0-4.156-3.72c-.123-7.428-.508-14.854-1.25-22.28z" class="C"/><path d="M18.318 22.668h756.97v124.2H18.318z" fill="#291866" stroke="#da8f35" stroke-width="10" class="B"/><path d="M166.73 70.83v.816h-19.573v-.816h1.242c1.086 0 1.96-.154 2.623-.463.48-.206.847-.56 1.104-1.06.202-.353.304-1.28.304-2.78V46.85c0-1.53-.1-2.485-.304-2.868s-.617-.713-1.242-.993c-.607-.294-1.436-.44-2.485-.44h-1.242v-.816h19.573v.816h-1.242c-1.086 0-1.96.154-2.623.463-.48.206-.856.56-1.132 1.06-.202.353-.304 1.28-.304 2.78v19.677c0 1.53.1 2.485.304 2.868.22.382.635.72 1.242 1.015.626.28 1.463.42 2.512.42h1.242m15.35-29.096l18.47 18.552v-12.86c0-1.794-.322-3.007-.966-3.64-.883-.853-2.365-1.265-4.445-1.235v-.816h12.368v.816c-1.583.162-2.65.375-3.202.64-.534.25-.957.67-1.27 1.257-.295.574-.442 1.566-.442 2.978V72.33h-.94l-25.316-24.905V66.44c0 1.72.488 2.882 1.463 3.485.994.603 2.126.904 3.396.904h.883v.816H168.8v-.816c2.06-.015 3.497-.353 4.307-1.015s1.215-1.787 1.215-3.375V45.33l-.8-.794c-.79-.794-1.49-1.316-2.098-1.566s-1.482-.4-2.623-.42v-.816h13.28m62.447 0v8.096h-.994c-.59-1.868-1.242-3.206-1.96-4.015-.718-.824-1.702-1.478-2.954-1.963-.7-.265-1.923-.397-3.672-.397h-2.788v23.074c0 1.53.1 2.485.304 2.868.22.382.635.72 1.242 1.015.626.28 1.472.42 2.54.42h1.242v.816h-19.6v-.816h1.242c1.086 0 1.96-.154 2.623-.463.478-.206.856-.56 1.132-1.06.202-.353.304-1.28.304-2.78V43.454h-2.705c-2.52 0-4.353.427-5.494 1.28-1.6 1.19-2.613 2.9-3.037 5.096h-1.05v-8.096h33.626m17.503 1.72V55.63h.745c2.374 0 4.095-.596 5.163-1.787s1.748-2.95 2.043-5.272h1.05v15.662h-1.05c-.22-1.706-.7-3.103-1.408-4.19-.7-1.088-1.518-1.816-2.457-2.184-.94-.382-2.3-.574-4.086-.574v8.427c0 1.647.083 2.654.248 3.022.184.368.515.67.994.904s1.252.353 2.32.353h2.236c3.497 0 6.294-.647 8.393-1.94 2.117-1.294 3.635-3.265 4.555-5.912h1.02l-1.684 9.508h-32.356v-.816h1.242c1.086 0 1.96-.154 2.623-.463.48-.206.847-.56 1.104-1.06.202-.353.304-1.28.304-2.78V46.85c0-1.353-.046-2.184-.138-2.493-.184-.515-.525-.912-1.02-1.19-.7-.412-1.656-.618-2.87-.618h-1.242v-.816H279.1v8.846h-1.05c-.534-2.162-1.288-3.713-2.264-4.655-.957-.94-2.32-1.632-4.086-2.074-1.03-.265-2.963-.397-5.798-.397h-3.865m37.38 14.56v8.383c0 1.618.12 2.64.36 3.066.258.412.7.743 1.325.993s1.794.375 3.506.375v.816h-19.16v-.816c1.73 0 2.9-.125 3.506-.375.626-.265 1.058-.603 1.298-1.015.258-.412.386-1.427.386-3.044V46.983c0-1.618-.13-2.632-.386-3.044-.24-.426-.672-.765-1.298-1.015s-1.794-.375-3.506-.375v-.816h17.393c4.528 0 7.84.25 9.94.75s3.8 1.427 5.135 2.78c1.325 1.338 1.988 2.912 1.988 4.72 0 2.206-.994 4.03-2.982 5.47-1.27.912-3.046 1.596-5.328 2.052l9 10.125c1.178 1.31 2.015 2.125 2.512 2.45.755.456 1.63.706 2.623.75v.816H313.93l-12.064-13.633h-2.457m0-14.67v13.103h1.574c2.558 0 4.472-.184 5.742-.55 1.27-.382 2.264-1.06 2.982-2.03.736-.985 1.104-2.265 1.104-3.838 0-2.28-.672-3.963-2.015-5.052-1.325-1.088-3.47-1.632-6.432-1.632h-2.954m39.92-1.6l18.47 18.552v-12.86c0-1.794-.322-3.007-.966-3.64-.883-.853-2.365-1.265-4.445-1.235v-.816h12.368v.816c-1.583.162-2.65.375-3.202.64-.534.25-.957.67-1.27 1.257-.295.574-.442 1.566-.442 2.978V72.33h-.94l-25.316-24.905V66.44c0 1.72.488 2.882 1.463 3.485.994.603 2.126.904 3.396.904h.883v.816h-13.28v-.816c2.06-.015 3.497-.353 4.307-1.015s1.215-1.787 1.215-3.375V45.33l-.8-.794c-.79-.794-1.49-1.316-2.098-1.566s-1.482-.4-2.623-.42v-.816h13.28m50.3 21.398h-13.224l-1.574 2.912c-.515.97-.773 1.772-.773 2.404 0 .838.423 1.456 1.27 1.853.497.235 1.72.412 3.672.53v.816h-12.45v-.816c1.344-.162 2.448-.603 3.313-1.324.865-.735 1.932-2.243 3.202-4.522l13.39-23.868h.525l13.5 24.53c1.288 2.324 2.347 3.787 3.175 4.4.626.456 1.51.72 2.65.794v.816h-18.1v-.816h.745c1.454 0 2.475-.162 3.064-.485.405-.235.607-.574.607-1.015 0-.265-.055-.537-.166-.816-.037-.132-.313-.684-.828-1.654l-1.988-3.728m-.94-1.632l-5.577-10.302-5.742 10.302h11.32m49.748-19.765v8.096h-.994c-.59-1.868-1.242-3.206-1.96-4.015-.718-.824-1.702-1.478-2.954-1.963-.7-.265-1.923-.397-3.672-.397h-2.788v23.074c0 1.53.1 2.485.304 2.868.22.382.635.72 1.242 1.015.626.28 1.472.42 2.54.42h1.242v.816h-19.6v-.816h1.242c1.086 0 1.96-.154 2.623-.463.48-.206.856-.56 1.132-1.06.202-.353.304-1.28.304-2.78V43.454h-2.706c-2.52 0-4.353.427-5.494 1.28-1.6 1.19-2.613 2.9-3.037 5.096h-1.05v-8.096h33.626m22.804 29.096v.816H441.67v-.816h1.242c1.086 0 1.96-.154 2.623-.463.48-.206.847-.56 1.104-1.06.202-.353.304-1.28.304-2.78V46.85c0-1.53-.1-2.485-.304-2.868s-.617-.713-1.242-.993c-.607-.294-1.436-.44-2.485-.44h-1.242v-.816h19.574v.816H460c-1.086 0-1.96.154-2.623.463-.48.206-.856.56-1.132 1.06-.202.353-.304 1.28-.304 2.78v19.677c0 1.53.1 2.485.304 2.868.22.382.635.72 1.242 1.015.626.28 1.463.42 2.512.42h1.242m23.107-29.515c5.963-.176 10.804 1.213 14.52 4.17 3.736 2.956 5.604 6.655 5.604 11.096 0 3.794-1.4 7.133-4.17 10.015-3.68 3.824-8.88 5.735-15.598 5.735-6.736 0-11.945-1.824-15.626-5.47-2.908-2.882-4.362-6.302-4.362-10.258 0-4.44 1.886-8.14 5.66-11.096 3.79-2.97 8.448-4.368 13.97-4.19m.33 1.412c-3.423 0-6.028 1.397-7.813 4.19-1.454 2.294-2.18 5.588-2.18 9.883 0 5.103 1.123 8.875 3.368 11.316 1.564 1.706 3.755 2.56 6.57 2.56 1.896 0 3.478-.368 4.748-1.103 1.62-.94 2.88-2.44 3.782-4.5.902-2.074 1.353-4.772 1.353-8.096 0-3.956-.46-6.912-1.38-8.868-.92-1.97-2.098-3.36-3.534-4.17-1.417-.81-3.055-1.213-4.914-1.213m35.862-.993l18.47 18.552v-12.86c0-1.794-.322-3.007-.966-3.64-.883-.853-2.365-1.265-4.445-1.235v-.816h12.368v.816c-1.583.162-2.65.375-3.202.64-.534.25-.957.67-1.27 1.257-.295.574-.442 1.566-.442 2.978V72.33h-.94L514.8 47.424V66.44c0 1.72.488 2.882 1.463 3.485.994.603 2.126.904 3.396.904h.883v.816h-13.28v-.816c2.06-.015 3.497-.353 4.307-1.015s1.215-1.787 1.215-3.375V45.33l-.8-.794c-.79-.794-1.49-1.316-2.098-1.566s-1.482-.4-2.623-.42v-.816h13.28m50.3 21.398H557.62l-1.574 2.912c-.515.97-.773 1.772-.773 2.404 0 .838.423 1.456 1.27 1.853.497.235 1.72.412 3.672.53v.816h-12.45v-.816c1.344-.162 2.448-.603 3.313-1.324.865-.735 1.933-2.243 3.202-4.522l13.39-23.868h.525l13.5 24.53c1.288 2.324 2.347 3.787 3.175 4.4.626.456 1.51.72 2.65.794v.816h-18.1v-.816h.745c1.454 0 2.475-.162 3.064-.485.405-.235.607-.574.607-1.015 0-.265-.055-.537-.166-.816-.037-.132-.313-.684-.828-1.654l-1.988-3.728m-.94-1.632l-5.577-10.302-5.742 10.302h11.32m53.972-.353l-1.408 10.5h-33.24v-.816h1.242c1.086 0 1.96-.154 2.623-.463.48-.206.847-.56 1.104-1.06.202-.353.304-1.28.304-2.78V46.85c0-1.53-.1-2.485-.304-2.868s-.617-.713-1.242-.993c-.607-.294-1.436-.44-2.485-.44h-1.242v-.816h19.96v.816h-1.63c-1.086 0-1.96.154-2.623.463-.48.206-.856.56-1.132 1.06-.202.353-.304 1.28-.304 2.78V65.9c0 1.53.1 2.507.33 2.934.22.412.653.72 1.298.926.46.132 1.574.2 3.34.2h3.12c1.988 0 3.644-.28 4.97-.838s2.466-1.44 3.423-2.647c.975-1.206 1.896-2.985 2.76-5.338h1.132m-476.23 47.984v12.27c0 2.393.168 3.905.505 4.536.363.61.985 1.1 1.866 1.468.907.37 2.552.555 4.936.555v1.207h-26.78v-1.207c2.436 0 4.08-.185 4.936-.555.88-.392 1.5-.892 1.827-1.5.363-.61.544-2.1.544-4.503V92.684c0-2.393-.18-3.894-.544-4.503-.337-.63-.946-1.13-1.827-1.5s-2.526-.555-4.936-.555v-1.207h22.972c7.566 0 12.995 1.13 16.286 3.394s4.936 5.1 4.936 8.484c0 2.87-1.062 5.33-3.187 7.374s-5.053 3.437-8.784 4.177c-2.514.522-6.763.783-12.75.783m0-21.666v19.12c.855.044 1.503.065 1.943.065 3.16 0 5.597-.783 7.307-2.35 1.7-1.588 2.565-4.035 2.565-7.342 0-3.285-.855-5.688-2.565-7.21s-4.263-2.284-7.657-2.284h-1.594m54.378 29.106h-18.618l-2.216 4.307c-.726 1.436-1.088 2.62-1.088 3.557 0 1.24.596 2.154 1.788 2.74.7.348 2.423.61 5.17.783v1.207h-17.53v-1.207c1.892-.24 3.446-.892 4.664-1.958 1.218-1.088 2.72-3.317 4.51-6.69l18.85-35.306h.74L217.3 120.29c1.814 3.437 3.304 5.602 4.47 6.493.88.674 2.125 1.066 3.73 1.175v1.207h-25.498v-1.207h1.05c2.047 0 3.485-.24 4.314-.718.57-.348.855-.848.855-1.5a3.42 3.42 0 0 0-.233-1.207c-.052-.196-.44-1.012-1.166-2.447l-2.8-5.514m-1.322-2.415l-7.852-15.238-8.085 15.238h15.936m78.865-30.248v15.336h-1.516c-1.14-4.003-3.265-7.07-6.375-9.202s-6.634-3.198-10.572-3.198c-3.29 0-6.3.794-9.056 2.382s-4.755 3.665-6.025 6.232c-1.633 3.285-2.45 6.94-2.45 10.964 0 3.96.596 7.57 1.788 10.833 1.192 3.24 3.058 5.7 5.597 7.374 2.54 1.653 5.83 2.48 9.873 2.48 3.317 0 6.35-.61 9.095-1.827 2.773-1.218 5.688-3.317 8.746-6.298v3.818c-2.954 2.59-6.038 4.47-9.25 5.645-3.187 1.153-6.92 1.73-11.194 1.73-5.623 0-10.624-.946-15.003-2.84-4.353-1.893-7.722-4.612-10.106-8.158-2.358-3.546-3.537-7.32-3.537-11.323 0-4.22 1.31-8.223 3.926-12.008 2.643-3.785 6.193-6.722 10.65-8.8 4.483-2.088 9.238-3.132 14.265-3.132 3.705 0 7.618.674 11.738 2.023 2.384.783 3.9 1.175 4.548 1.175.83 0 1.542-.25 2.138-.75.622-.522 1.023-1.338 1.205-2.447h1.516m26.08 3.557v18.012h1.05c3.343 0 5.766-.88 7.268-2.643s2.462-4.362 2.876-7.8h1.477V118.2h-1.477c-.31-2.523-.972-4.6-1.982-6.2-.985-1.6-2.138-2.687-3.46-3.23-1.322-.566-3.24-.848-5.753-.848v12.465c0 2.436.117 3.927.35 4.47.26.544.726 1 1.4 1.338s1.762.522 3.265.522h3.148c4.923 0 8.862-.957 11.816-2.87 2.98-1.914 5.118-4.83 6.413-8.745h1.438l-2.37 14.064h-45.554v-1.207h1.75c1.53 0 2.76-.228 3.693-.685.674-.305 1.192-.827 1.555-1.566.285-.522.428-1.893.428-4.11V92.488c0-2-.065-3.23-.194-3.687-.26-.76-.74-1.35-1.438-1.762-.985-.61-2.332-.914-4.042-.914h-1.75v-1.207h44.116v13.085h-1.477c-.752-3.198-1.814-5.493-3.187-6.885-1.348-1.392-3.265-2.415-5.753-3.067-1.45-.392-4.172-.587-8.162-.587h-5.442m88.777-3.557l.428 14.75h-1.594c-.752-3.698-2.604-6.667-5.558-8.908-2.928-2.262-6.102-3.393-9.523-3.394-2.643 0-4.742.598-6.297 1.795-1.53 1.175-2.293 2.534-2.293 4.08 0 .98.272 1.85.816 2.6.75 1.022 1.956 2.034 3.615 3.035 1.218.718 4.03 2 8.435 3.818 6.167 2.545 10.326 4.95 12.477 7.21 2.125 2.262 3.187 4.85 3.187 7.766 0 3.698-1.723 6.885-5.17 9.56-3.42 2.654-7.774 3.98-13.06 3.98-1.658 0-3.226-.14-4.703-.424s-3.33-.816-5.558-1.6c-1.244-.435-2.267-.653-3.07-.653-.674 0-1.386.218-2.138.653s-1.36 1.1-1.827 2h-1.438V113.47h1.438c1.14 4.7 3.33 8.288 6.57 10.768 3.265 2.458 6.776 3.687 10.533 3.687 2.902 0 5.208-.663 6.92-2 1.736-1.327 2.604-2.87 2.604-4.633 0-1.044-.337-2.056-1.01-3.035-.648-.98-1.645-1.903-2.993-2.774-1.347-.892-3.73-2.045-7.152-3.46-4.794-1.98-8.24-3.665-10.34-5.058s-3.718-2.948-4.86-4.666a10.22 10.22 0 0 1-1.671-5.678c0-3.524 1.542-6.526 4.625-9.006s6.97-3.72 11.66-3.72a23.44 23.44 0 0 1 4.975.522c1.218.26 2.695.75 4.43 1.468 1.762.696 2.993 1.044 3.693 1.044.674 0 1.205-.174 1.594-.522s.75-1.186 1.088-2.513h1.166m57.137 1.012v11.975h-1.4c-.83-2.763-1.75-4.742-2.76-5.94-1.01-1.218-2.397-2.186-4.16-2.904-.985-.392-2.708-.587-5.17-.587h-3.926v34.13c0 2.262.142 3.676.428 4.242.31.566.894 1.066 1.75 1.5.88.413 2.073.62 3.576.62h1.75v1.207h-27.597v-1.207h1.75c1.53 0 2.76-.228 3.693-.685.674-.305 1.205-.827 1.594-1.566.285-.522.428-1.893.428-4.11v-34.13h-3.81c-3.55 0-6.128.63-7.735 1.893-2.254 1.762-3.68 4.275-4.276 7.538h-1.477V84.918h47.342m30.162 31.65h-18.618l-2.216 4.307c-.726 1.436-1.088 2.62-1.088 3.557 0 1.24.596 2.154 1.788 2.74.7.348 2.423.61 5.17.783v1.207h-17.53v-1.207c1.892-.24 3.446-.892 4.664-1.958 1.218-1.088 2.72-3.317 4.51-6.69l18.85-35.306h.74L497 120.29c1.814 3.437 3.304 5.602 4.47 6.493.88.674 2.125 1.066 3.73 1.175v1.207h-25.498v-1.207h1.05c2.047 0 3.485-.24 4.314-.718.57-.348.855-.848.855-1.5a3.42 3.42 0 0 0-.233-1.207c-.052-.196-.44-1.012-1.166-2.447l-2.8-5.514m-1.322-2.415l-7.852-15.238-8.085 15.238h15.936m70.042-29.237v11.975h-1.4c-.83-2.763-1.75-4.742-2.76-5.94-1.01-1.218-2.397-2.186-4.16-2.904-.985-.392-2.708-.587-5.17-.587h-3.926v34.13c0 2.262.142 3.676.428 4.242.31.566.894 1.066 1.75 1.5.88.413 2.073.62 3.576.62h1.75v1.207h-27.597v-1.207h1.75c1.53 0 2.76-.228 3.693-.685.674-.305 1.205-.827 1.594-1.566.285-.522.428-1.893.428-4.11v-34.13h-3.81c-3.55 0-6.128.63-7.735 1.893-2.254 1.762-3.68 4.275-4.276 7.538h-1.477V84.918h47.342m32.106 43.04v1.207h-27.558v-1.207h1.75c1.53 0 2.76-.228 3.693-.685.674-.305 1.192-.827 1.555-1.566.285-.522.428-1.893.428-4.11V92.488c0-2.262-.143-3.676-.428-4.242s-.868-1.055-1.75-1.468c-.855-.435-2.02-.653-3.498-.653h-1.75v-1.207h27.558v1.207h-1.75c-1.53 0-2.76.228-3.693.685-.674.305-1.205.827-1.594 1.566-.285.522-.428 1.893-.428 4.11v29.106c0 2.262.142 3.676.428 4.242.31.566.894 1.066 1.75 1.5.88.413 2.06.62 3.537.62h1.75m32.533-43.66c8.396-.26 15.21 1.795 20.445 6.167 5.26 4.372 7.9 9.843 7.9 16.413 0 5.612-1.956 10.55-5.87 14.814-5.183 5.656-12.503 8.484-21.96 8.484-9.484 0-16.817-2.697-22-8.092-4.094-4.264-6.14-9.32-6.14-15.173 0-6.57 2.656-12.04 7.968-16.413 5.338-4.394 11.894-6.46 19.668-6.2m.466 2.088c-4.82 0-8.486 2.067-11 6.2-2.047 3.394-3.07 8.266-3.07 14.618 0 7.548 1.58 13.128 4.742 16.74 2.203 2.523 5.286 3.785 9.25 3.785 2.67 0 4.897-.544 6.685-1.632 2.28-1.392 4.055-3.61 5.325-6.657 1.27-3.067 1.905-7.06 1.905-11.975 0-5.852-.648-10.224-1.943-13.117-1.296-2.915-2.954-4.97-4.975-6.167-1.995-1.196-4.302-1.795-6.92-1.795M115.382 57.4l.714 22.97h-2.66c-1.255-5.76-4.348-10.384-9.28-13.873-4.89-3.523-10.19-5.285-15.9-5.285-4.413 0-7.918.932-10.513 2.795-2.553 1.83-3.83 3.947-3.83 6.352 0 1.525.454 2.88 1.363 4.065 1.255 1.592 3.266 3.168 6.035 4.726 2.033 1.118 6.728 3.1 14.083 5.946 10.297 3.964 17.24 7.707 20.832 11.23 3.548 3.523 5.322 7.555 5.322 12.095 0 5.76-2.877 10.723-8.63 14.9-5.71 4.133-12.98 6.2-21.806 6.2-2.77 0-5.387-.22-7.853-.66s-5.56-1.27-9.28-2.5c-2.077-.678-3.786-1.016-5.127-1.016-1.125 0-2.315.34-3.57 1.016s-2.27 1.71-3.05 3.1h-2.4v-26.02h2.4c1.904 7.318 5.56 12.908 10.968 16.77 5.45 3.828 11.314 5.742 17.587 5.742 4.846 0 8.696-1.033 11.552-3.1 2.9-2.067 4.348-4.472 4.348-7.216 0-1.626-.562-3.2-1.687-4.726-1.082-1.525-2.747-2.964-4.997-4.32-2.25-1.39-6.23-3.185-11.94-5.387-8.004-3.083-13.758-5.708-17.263-7.877s-6.21-4.6-8.112-7.267c-1.86-2.676-2.79-5.624-2.79-8.842 0-5.488 2.574-10.163 7.723-14.026S79.255 57.4 87.086 57.4c2.855 0 5.624.27 8.307.813 2.033.407 4.5 1.17 7.398 2.287 2.942 1.084 4.997 1.626 6.165 1.626 1.125 0 2.012-.27 2.66-.813s1.255-1.846 1.817-3.913h1.947m562.866 2.144l41.716 41.663V72.326c0-4.03-.728-6.754-2.182-8.174-1.995-1.915-5.342-2.84-10.04-2.774v-1.833h27.935v1.833c-3.575.363-5.986.842-7.233 1.437-1.206.562-2.162 1.503-2.868 2.824-.665 1.288-.998 3.517-.998 6.688v55.93h-2.12l-57.18-55.93v42.704c0 3.864 1.102 6.473 3.305 7.827 2.245 1.354 4.8 2.03 7.67 2.03h1.995v1.833h-29.993v-1.833c4.656-.033 7.898-.793 9.727-2.28s2.744-4.013 2.744-7.58v-47.4l-1.808-1.783c-1.788-1.783-3.367-2.956-4.74-3.517s-3.346-.875-5.924-.94v-1.833h29.993" fill="#da8f35"/><defs ><path id="B" d="M338.024 209.145a5 5 0 0 0-1.344.219l-29.812 8.75a5 5 0 0 0-2.141 8.482 5 5 0 0 0 4.953 1.112l29.813-8.75a5 5 0 0 0-1.469-9.812h0z"/><path id="C" d="M457.16 205.96a5 5 0 0 0-1.325-.312l-30.892-3.325a5 5 0 0 0-5.224 7.017 5 5 0 0 0 4.151 2.923l30.892 3.325a5 5 0 0 0 2.398-9.628h0z"/><path id="D" d="M564.062 249.19a5 5 0 0 0-1.105-.796l-27.268-14.893a5 5 0 0 0-7.511 4.484 5 5 0 0 0 2.716 4.289l27.268 14.893a5 5 0 0 0 5.9-7.977h0z"/><path id="E" d="M651.175 332.238a5 5 0 0 0-.716-1.158l-19.493-24.195a5 5 0 0 0-8.655 1.268 5 5 0 0 0 .868 5.002l19.493 24.195a5 5 0 0 0 8.503-5.112h0z"/><path id="F" d="M696.198 440.004a5 5 0 0 0-.219-1.344l-8.75-29.812a5 5 0 0 0-8.482-2.141 5 5 0 0 0-1.112 4.953l8.75 29.813a5 5 0 0 0 9.813-1.469h0z"/><path id="G" d="M699.384 557.627a5 5 0 0 0 .312-1.325l3.325-30.892a5 5 0 0 0-7.017-5.224 5 5 0 0 0-2.923 4.151l-3.325 30.892a5 5 0 0 0 9.628 2.398h0z"/><path id="H" d="M656.658 667.557a5 5 0 0 0 .796-1.105l14.893-27.268a5 5 0 0 0-4.484-7.511 5 5 0 0 0-4.289 2.716l-14.893 27.268a5 5 0 0 0 7.977 5.9h0z"/><path id="I" d="M468.875 796.664a5 5 0 0 0 1.344-.219l29.812-8.75a5 5 0 0 0 2.141-8.482 5 5 0 0 0-4.953-1.112l-29.813 8.75a5 5 0 0 0 1.469 9.813h0z"/><path id="J" d="M351.758 799.344a5 5 0 0 0 1.325.312l30.892 3.325a5 5 0 0 0 5.224-7.017 5 5 0 0 0-4.151-2.923l-30.892-3.325a5 5 0 0 0-2.398 9.628h0z"/><path id="K" d="M239.302 758.638a5 5 0 0 0 1.105.796l27.268 14.893a5 5 0 0 0 7.511-4.484 5 5 0 0 0-2.716-4.289l-27.268-14.893a5 5 0 0 0-5.9 7.977h0z"/><path id="L" d="M106.155 569.34a5 5 0 0 0 .219 1.344l8.75 29.812a5 5 0 0 0 8.482 2.141 5 5 0 0 0 1.112-4.953l-8.75-29.813a5 5 0 0 0-9.813 1.469h0z"/><path id="M" d="M104.484 446.667a5 5 0 0 0-.312 1.325l-3.325 30.892a5 5 0 0 0 7.017 5.224 5 5 0 0 0 2.923-4.151l3.325-30.892a5 5 0 0 0-9.628-2.398h0z"/><path id="N" d="M229.77 255.348a5 5 0 0 0-1.158.716l-24.195 19.493a5 5 0 0 0 1.268 8.655 5 5 0 0 0 5.002-.868l24.195-19.493a5 5 0 0 0-5.112-8.504h0z"/><path id="O" d="M396.512 202.317a5 5 0 0 0-1.361-.048l-30.947 2.766a5 5 0 0 0-3.754 7.901 5 5 0 0 0 4.641 2.057l30.947-2.766a5 5 0 0 0 .474-9.911h0z"/><path id="P" d="M513.982 222.435a5 5 0 0 0-1.239-.565l-29.65-9.288a5 5 0 0 0-6.492 5.863 5 5 0 0 0 3.501 3.676l29.65 9.288a5 5 0 0 0 4.23-8.975h0z"/><path id="Q" d="M610.394 285.69a5 5 0 0 0-.928-.996l-23.838-19.927a5 5 0 0 0-8.242 2.932 5 5 0 0 0 1.827 4.736l23.838 19.927a5 5 0 0 0 7.343-6.673h0z"/><path id="R" d="M679.632 384.137a5 5 0 0 0-.477-1.275l-14.398-27.533a5 5 0 0 0-8.737-.445 5 5 0 0 0-.124 5.075l14.398 27.533a5 5 0 0 0 9.337-3.355h0z"/><path id="S" d="M702.766 498.616a5 5 0 0 0 .048-1.361l-2.766-30.947a5 5 0 0 0-7.901-3.754 5 5 0 0 0-2.057 4.641l2.766 30.947a5 5 0 0 0 9.91.474h0z"/><path id="T" d="M682.944 614.6a5 5 0 0 0 .565-1.239l9.288-29.65a5 5 0 0 0-5.863-6.492 5 5 0 0 0-3.676 3.501l-9.288 29.65a5 5 0 0 0 8.975 4.23h0z"/><path id="U" d="M294.84 783.855a5 5 0 0 0 1.239.565l29.65 9.288a5 5 0 0 0 6.492-5.863 5 5 0 0 0-3.501-3.676l-29.65-9.288a5 5 0 0 0-4.23 8.975h0z"/><path id="V" d="M123.842 623.148a5 5 0 0 0 .477 1.275l14.398 27.533a5 5 0 0 0 8.737.445 5 5 0 0 0 .124-5.075l-14.398-27.533a5 5 0 0 0-9.337 3.355h0z"/><path id="W" d="M98.828 510.355a5 5 0 0 0-.048 1.361l2.766 30.947a5 5 0 0 0 7.901 3.754 5 5 0 0 0 2.057-4.641l-2.766-30.947a5 5 0 0 0-9.91-.474h0z"/><path id="X" d="M121.122 389.713a5 5 0 0 0-.565 1.239l-9.288 29.65a5 5 0 0 0 5.863 6.492 5 5 0 0 0 3.676-3.501l9.288-29.65a5 5 0 0 0-8.975-4.23h0z"/><path id="Y" d="M185 290.446a5 5 0 0 0-.996.928l-19.927 23.838a5 5 0 0 0 2.932 8.242 5 5 0 0 0 4.736-1.827l19.927-23.838a5 5 0 0 0-6.673-7.343h0z"/><path id="Z" d="M281.324 226.512a5 5 0 0 0-1.275.477l-27.533 14.398a5 5 0 0 0-.445 8.737 5 5 0 0 0 5.075.124l27.533-14.398a5 5 0 0 0-3.355-9.337h0z"/><path id="a" d="M518.09 452.215l96.848-74.878-37.376-16.162-94.576 73.867 35.103 17.173z"/></defs></svg>